PathFileType	4	(X/Y/Z)	./motion_analysis/DM_ngait_tm_med1_new.trc
DataRate	CameraRate	NumFrames	NumMarkers	Units	OrigDataRate	OrigDataStartFrame	OrigNumFrames
120	120	6	68	mm	120	257	2061
Frame#	Time	Sternum			Neck			R_Shoulder			L_Shoulder			Xiphoid			Thoracic			R_Asis			L_Asis			R_Psis			L_Psis			Lumbar			R_Elbow			R_ElbowMedial			R_ShoulderAnterior			R_ShoulderPosterior			R_Wrist			R_Radius			R_Ulna			L_Elbow			L_ElbowMedial			L_ShoulderAnterior			L_ShoulderPosterior			L_Wrist			L_Ulna			L_Radius			L_Thigh_Superior			L_Thigh_Inferior			L_Thigh_Lateral			L_Knee_Lateral			L_Knee_Medial			L_Patella			L_Shank_Superior			L_Shank_Inferior			L_Shank_Lateral			L_Ankle_Lateral			L_Ankle_Medial			R_Thigh_Superior			R_Thigh_Inferior			R_Thigh_Lateral			R_Knee_Lateral			R_Knee_Medial			R_Patella			R_Shank_Superior			R_Shank_Inferior			R_Shank_Lateral			R_Ankle_Lateral			RankleMedial			R_Heel			R_Toe			R_Midfoot_Medial			R_Midfoot_Lateral			R_Hindfoot			R_Midfoot_Superior			R_ToeMedial			R_ToeLateral			L_Heel			L_Toe			L_Midfoot_Medial			L_Midfoot_Lateral			L_Hindfoot			L_Midfoot_Superior			L_ToeMedial			L_ToeLateral			Oglobal			Sacral			Xglobal			Yglobal			Zglobal			
		X1	Y1	Z1	X2	Y2	Z2	X3	Y3	Z3	X4	Y4	Z4	X5	Y5	Z5	X6	Y6	Z6	X7	Y7	Z7	X8	Y8	Z8	X9	Y9	Z9	X10	Y10	Z10	X11	Y11	Z11	X12	Y12	Z12	X13	Y13	Z13	X14	Y14	Z14	X15	Y15	Z15	X16	Y16	Z16	X17	Y17	Z17	X18	Y18	Z18	X19	Y19	Z19	X20	Y20	Z20	X21	Y21	Z21	X22	Y22	Z22	X23	Y23	Z23	X24	Y24	Z24	X25	Y25	Z25	X26	Y26	Z26	X27	Y27	Z27	X28	Y28	Z28	X29	Y29	Z29	X30	Y30	Z30	X31	Y31	Z31	X32	Y32	Z32	X33	Y33	Z33	X34	Y34	Z34	X35	Y35	Z35	X36	Y36	Z36	X37	Y37	Z37	X38	Y38	Z38	X39	Y39	Z39	X40	Y40	Z40	X41	Y41	Z41	X42	Y42	Z42	X43	Y43	Z43	X44	Y44	Z44	X45	Y45	Z45	X46	Y46	Z46	X47	Y47	Z47	X48	Y48	Z48	X49	Y49	Z49	X50	Y50	Z50	X51	Y51	Z51	X52	Y52	Z52	X53	Y53	Z53	X54	Y54	Z54	X55	Y55	Z55	X56	Y56	Z56	X57	Y57	Z57	X58	Y58	Z58	X59	Y59	Z59	X60	Y60	Z60	X61	Y61	Z61	X62	Y62	Z62	X63	Y63	Z63	X64	Y64	Z64	X65	Y65	Z65	X66	Y66	Z66	X67	Y67	Z67	X68	Y68	Z68	

258	2.15	-944.559	1389.21	506.45	-793.072	1482.11	501.777	-889.151	1429.43	337.521	-858.688	1425.17	678.518	-958.518	1224.67	501.748	-696.124	1293	507.742	-875.545	996.409	362.617	-891.578	1007.08	639.0890000000001	-678.117	1040.41	480.642	-682.9589999999999	1038.68	559.9160000000001	-681.9829999999999	1088.98	515.051	-990.736	1137.54	237.673	-0	0	0	-0	0	0	-0	0	0	-1200.89	962.915	277.155	-1182.45	961.258	320.502	-1169.31	938.159	250.567	-898.784	1093.26	776.018	-0	0	0	-0	0	0	-0	0	0	-1056.84	876.576	753.216	-1013.49	867.67	773.909	-1044.05	890.491	709.1180000000001	-835.4880000000001	826.454	665.8150000000001	-852.817	607.5890000000001	604.351	-900.0549999999999	698.696	580.8630000000001	-0	0	0	-0	0	0	-876.646	517.069	539.442	-802.716	454.318	613.374	-730.3579999999999	191.952	608.626	-793.927	311.341	538.9	-0	0	0	-0	0	0	-808.78	818.184	327.036	-897.539	619.182	342.709	-962.436	703.251	382.856	-0	0	0	-0	0	0	-1004.37	539.481	389.321	-0	0	0	-802.936	246.555	335.271	-907.686	347.994	391.56	-0	0	0	-0	0	0	-710.542	127.796	399.419	-992.423	66.3296	323.366	-929.098	56.893	394.729	-889.277	58.9414	284.445	-786.202	76.3173	323.747	-874.405	154.649	354.433	-968.521	59.1577	375.36	-939.554	60.4765	286.422	-637.1079999999999	76.9791	554.148	-936.612	68.2868	568.1420000000001	-857.934	47.6295	514.877	-841.552	49.3145	628.168	-733.744	44.0081	614.987	-800.436	134.041	564.8	-900.355	51.2324	522.091	-896.765	51.4659	619.487	-0	0	0	-680.538	1039.55	520.279	-200	0	0	-0	0	200	-0	200	0	
259	2.158333	-943.663	1388.79	506.33	-792.308	1481.77	501.995	-887.899	1429.03	337.664	-858.377	1424.69	678.573	-957.516	1224.21	501.515	-695.124	1292.84	508.144	-874.038	996.051	362.525	-890.284	1006.95	638.914	-676.659	1040.16	480.589	-681.516	1038.44	560.097	-680.576	1088.71	515.004	-990.505	1137.63	237.765	-0	0	0	-0	0	0	-0	0	0	-1201.15	963.282	277.052	-1182.8	961.843	320.522	-1169.46	938.472	250.687	-900.4930000000001	1093.11	775.796	-0	0	0	-0	0	0	-0	0	0	-1060.47	877.951	751.653	-1017.26	868.596	772.51	-1047.32	891.9109999999999	707.72	-833.409	826.021	665.663	-849.067	607.11	604.313	-897.091	697.859	581.003	-0	0	0	-0	0	0	-872.047	516.362	539.62	-797.8579999999999	454.032	613.351	-724.252	192.236	608.8339999999999	-788.549	311.02	538.97	-0	0	0	-0	0	0	-807.657	818.099	326.764	-898.192	619.745	343.012	-962.252	704.343	383.266	-0	0	0	-0	0	0	-1005.96	541.668	389.761	-0	0	0	-814.548	243.168	333.872	-915.776	347.777	391.019	-0	0	0	-0	0	0	-726.261	120.982	397.434	-1010.01	69.3683	320.871	-947.0599999999999	57.4485	392.231	-907.091	58.6973	281.989	-803.583	72.4318	321.434	-889.079	153.513	352.457	-986.444	61.0408	372.735	-957.343	61.9176	283.895	-630.4450000000001	77.01009999999999	554.1900000000001	-929.8049999999999	68.0808	568.0940000000001	-851.2430000000001	47.5358	514.859	-834.895	49.2399	628.155	-727.138	44.0196	615.002	-793.794	133.979	564.79	-893.749	51.3503	522.311	-890.074	51.4327	619.569	-0	0	0	-679.087	1039.3	520.343	-200	0	0	-0	0	200	-0	200	0	
260	2.166667	-942.8	1388.22	506.017	-791.525	1481.48	502.236	-886.651	1428.66	337.668	-858.13	1424.13	678.563	-956.457	1223.71	501.234	-694.121	1292.65	508.559	-872.475	995.954	362.299	-889.001	1006.52	638.807	-675.226	1039.95	480.614	-680.154	1038.23	560.2910000000001	-679.201	1088.51	515.139	-990.294	1137.74	237.843	-0	0	0	-0	0	0	-0	0	0	-1201.34	963.653	277.012	-1183.15	962.449	320.688	-1169.52	938.795	250.724	-902.068	1092.93	775.453	-0	0	0	-0	0	0	-0	0	0	-1063.83	879.244	749.951	-1020.89	869.439	771.015	-1050.42	893.2089999999999	706.112	-831.35	825.624	665.521	-845.266	606.571	604.29	-894.096	696.908	581.128	-0	0	0	-0	0	0	-867.448	515.688	539.8390000000001	-792.84	453.766	613.294	-718.046	192.287	608.789	-782.972	310.789	538.99	-0	0	0	-0	0	0	-806.575	817.8920000000001	326.494	-898.694	620.274	343.385	-961.994	705.317	383.622	-0	0	0	-0	0	0	-1007.31	543.736	390.324	-0	0	0	-826.1849999999999	240.026	332.558	-923.683	347.678	390.672	-0	0	0	-0	0	0	-742.075	114.594	395.457	-1027.29	72.6998	318.42	-964.842	58.3741	389.91	-924.829	58.892	279.678	-820.8579999999999	68.9705	319.2	-903.6950000000001	152.683	350.655	-1004.09	63.3209	370.213	-974.846	63.6877	281.434	-623.853	77.06399999999999	554.178	-923.177	67.9478	568.025	-844.646	47.5417	514.851	-828.2809999999999	49.1417	628.146	-720.473	43.975	614.955	-787.284	133.98	564.861	-887.1420000000001	51.3877	522.3680000000001	-883.475	51.3709	619.6079999999999	-0	0	0	-677.6900000000001	1039.09	520.453	-200	0	0	-0	0	200	-0	200	0	
261	2.175	-941.929	1387.68	505.842	-790.772	1481.17	502.434	-885.489	1428.27	337.772	-857.879	1423.54	678.408	-955.424	1223.19	500.782	-693.193	1292.42	508.829	-870.976	995.509	362.089	-887.7859999999999	1006.31	638.6950000000001	-673.8630000000001	1039.68	480.553	-678.856	1037.96	560.389	-677.878	1088.23	515.104	-990.05	1137.84	237.746	-0	0	0	-0	0	0	-0	0	0	-1201.49	963.952	276.929	-1183.39	962.77	320.592	-1169.61	939.081	250.806	-903.61	1092.65	775.035	-0	0	0	-0	0	0	-0	0	0	-1067	880.398	748.125	-1024.24	870.154	769.415	-1053.31	894.4299999999999	704.4299999999999	-829.385	825.194	665.431	-841.409	606.078	604.229	-891.11	695.984	581.2619999999999	-0	0	0	-0	0	0	-862.716	514.985	539.895	-787.857	453.603	613.359	-711.849	192.392	608.784	-777.55	310.47	539.289	-0	0	0	-0	0	0	-805.422	817.817	326.012	-898.996	620.687	343.727	-961.667	706.1559999999999	384.024	-0	0	0	-0	0	0	-1008.43	545.8099999999999	390.835	-0	0	0	-837.797	237.135	331.275	-931.598	347.689	390.241	-0	0	0	-0	0	0	-757.977	108.651	393.72	-1044.26	76.2278	316.203	-982.404	59.5436	387.625	-942.249	59.3539	277.444	-838.106	65.9375	317.121	-918.265	152.071	348.921	-1021.42	65.8873	367.897	-992.15	65.8472	279.074	-617.151	77.14749999999999	554.223	-916.556	67.95659999999999	568.133	-837.941	47.4669	515	-821.4930000000001	48.8433	628.2859999999999	-713.909	43.9623	614.966	-781.093	134.02	565.182	-880.803	51.4501	522.6849999999999	-876.813	51.3542	619.679	-0	0	0	-676.359	1038.82	520.471	-200	0	0	-0	0	200	-0	200	0	
262	2.183333	-941.0359999999999	1387.1	505.482	-789.997	1480.83	502.618	-884.279	1427.8	337.738	-857.598	1422.96	678.287	-954.401	1222.7	500.416	-692.1609999999999	1292.2	509.047	-869.648	995.032	361.938	-886.6319999999999	1006.18	638.633	-672.603	1039.38	480.444	-677.645	1037.66	560.42	-676.633	1087.92	515.0119999999999	-989.816	1137.81	237.688	-0	0	0	-0	0	0	-0	0	0	-1201.57	964.204	276.844	-1183.58	963.019	320.465	-1169.62	939.29	250.833	-905.067	1092.35	774.46	-0	0	0	-0	0	0	-0	0	0	-1069.98	881.428	746.311	-1027.38	870.798	767.718	-1056.03	895.547	702.8049999999999	-827.433	824.753	665.261	-837.571	605.582	604.28	-888.12	694.951	581.47	-0	0	0	-0	0	0	-858.051	514.252	539.901	-782.773	453.414	613.429	-705.611	192.492	608.769	-771.951	310.275	539.349	-0	0	0	-0	0	0	-804.1660000000001	817.499	325.887	-899.121	621.002	344.079	-961.152	706.837	384.318	-0	0	0	-0	0	0	-1009.3	547.752	391.114	-0	0	0	-849.3920000000001	234.415	329.991	-939.42	348.078	389.113	-0	0	0	-0	0	0	-773.992	103.226	391.993	-1060.97	79.93170000000001	314.118	-999.865	61.3202	385.565	-959.648	60.2509	275.411	-855.221	63.2668	315.185	-932.792	151.9	347.24	-1038.57	68.6446	365.74	-1009.21	68.1015	277.121	-610.407	77.218	554.2380000000001	-909.846	67.85299999999999	568.149	-831.141	47.2008	514.951	-814.763	48.8622	628.2430000000001	-707.083	44.0146	615.016	-773.996	133.788	564.936	-874.279	51.1729	522.79	-869.938	51.2811	619.749	-0	0	0	-675.124	1038.52	520.432	-200	0	0	-0	0	200	-0	200	0	
263	2.191667	-940.204	1386.61	505.184	-789.288	1480.47	502.63	-883.171	1427.39	337.703	-857.222	1422.4	678.172	-953.397	1222.13	499.967	-691.0309999999999	1292.14	509.034	-868.425	994.766	361.717	-885.477	1005.73	638.481	-671.405	1039.11	480.262	-676.471	1037.4	560.403	-675.4930000000001	1087.66	514.923	-989.539	1137.7	237.607	-0	0	0	-0	0	0	-0	0	0	-1201.61	964.452	276.833	-1183.68	963.277	320.433	-1169.63	939.514	250.831	-906.474	1092	773.861	-0	0	0	-0	0	0	-0	0	0	-1072.69	882.323	744.369	-1030.24	871.324	765.895	-1058.5	896.5410000000001	701.003	-825.525	824.321	664.956	-833.774	605.093	604.394	-885.11	693.967	581.742	-0	0	0	-0	0	0	-853.458	513.576	540.104	-777.71	453.247	613.502	-699.3	192.69	608.826	-766.285	310.116	539.471	-0	0	0	-0	0	0	-802.898	817.109	325.876	-899.019	621.2380000000001	344.287	-960.543	707.418	384.485	-0	0	0	-0	0	0	-1009.95	549.55	391.431	-0	0	0	-860.975	231.939	328.776	-947.3099999999999	348.217	389.194	-0	0	0	-0	0	0	-789.936	98.2897	390.345	-1077.54	83.8657	312.252	-1016.97	63.2222	383.714	-976.759	61.3245	273.568	-872.266	61.0477	313.39	-947.123	151.855	345.738	-1055.33	71.62350000000001	363.726	-1026.01	70.5257	275.366	-603.636	77.2525	554.2809999999999	-903.203	67.73180000000001	568.026	-824.294	46.9336	514.799	-808.013	48.5798	628.105	-700.253	43.9841	614.8680000000001	-767.277	133.572	564.8579999999999	-867.312	50.3841	522.433	-863.319	51.2777	619.676	-0	0	0	-673.938	1038.26	520.332	-200	0	0	-0	0	200	-0	200	0	
